# xmcd
#
# Track frame offsets: 
#        150
#        14472
#        31612
#        44395
#        55847
#        70342
#        84095
#        99407
#        114757
#        121962
#        141865
#        150817
#        161450
#        175032
#        206492
#        219285
#        243642
#        273065
#        290042
#        308205
#
# Disc length: 4315 seconds
#
# Revision: 1
# Processed by: cddbd v1.5.2PL0 Copyright (c) Steve Scherf et al.
# Submitted via: ExactAudioCopyFreeDBPlugin 1.0
#
DISCID=fe10d914
DTITLE=Hoyt Axton - Hoyt Axton Live
DYEAR=1900
DGENRE=Country
TTITLE0=Roanoke
TTITLE1=Wild Bull Rider
TTITLE2=Flash of Fire
TTITLE3=Boney Fingers
TTITLE4=Della and The Dealer
TTITLE5=When the Morning Comes
TTITLE6=Evangelina
TTITLE7=No No Song
TTITLE8=Mel Tillis and Roger Miller Story
TTITLE9=Lion in the Winter
TTITLE10=Jealous Man
TTITLE11=The Devil
TTITLE12=A Rusty Old Halo
TTITLE13=Bus Story
TTITLE14=An Old Greyhound
TTITLE15=Orange Blossom Special
TTITLE16=Will the Circle Be Unbroken
TTITLE17=Maybelline
TTITLE18=Never Been to Spain
TTITLE19=Joy to the World
EXTD=
EXTT0=
EXTT1=
EXTT2=
EXTT3=
EXTT4=
EXTT5=
EXTT6=
EXTT7=
EXTT8=
EXTT9=
EXTT10=
EXTT11=
EXTT12=
EXTT13=
EXTT14=
EXTT15=
EXTT16=
EXTT17=
EXTT18=
EXTT19=
PLAYORDER=
